PathFileType	4	(X/Y/Z)	8_coords_data.trc
DataRate	CameraRate	NumFrames	NumMarkers	Units	OrigDataRate	OrigDataStartFrame	OrigNumFrames
30.0	30.0	7	21	m	30.0	1	56
Frame#	Time	THUMB_TIP	THUMB_IP	THUMB_MCP	THUMB_CMC	INDEX_TIP	INDEX_DIP	INDEX_PIP	INDEX_MCP	MIDDLE_TIP	MIDDLE_DIP	MIDDLE_PIP	MIDDLE_MCP	RING_TIP	RING_DIP	RING_PIP	RING_MCP	PINKY_TIP	PINKY_DIP	PINKY_PIP	PINKY_MCP	WRIST
X1	Y1	Z1	X2	Y2	Z2	X3	Y3	Z3	X4	Y4	Z4	X5	Y5	Z5	X6	Y6	Z6	X7	Y7	Z7	X8	Y8	Z8	X9	Y9	Z9	X10	Y10	Z10	X11	Y11	Z11	X12	Y12	Z12	X13	Y13	Z13	X14	Y14	Z14	X15	Y15	Z15	X16	Y16	Z16	X17	Y17	Z17	X18	Y18	Z18	X19	Y19	Z19	X20	Y20	Z20	X21	Y21	Z21
0	-2.749317978547796e-18	0.5483938684663985	-0.02180376621742497	-0.12481307171679351	0.5259287142303015	-0.018004672635016816	-0.12183251252421201	0.49712157165110793	-0.010516694831249285	-0.11272763883852571	0.4716546914877058	-0.024796370566674386	-0.07900199761950633	0.5585680466832192	0.0623225317263737	-0.1619481956489323	0.5469107648235437	0.05226453128941588	-0.15241171795251657	0.532155246671363	0.04286506559895009	-0.13435806010169798	0.5083068296419925	0.02600079332878369	-0.10336636089060386	0.5080515387843658	-0.010400500602693263	-0.10944790434520324	0.5214965038535646	-0.00968190769257482	-0.1215605646028654	0.5423059996271176	0.010715916913642043	-0.12211118878004856	0.5235327215506534	0.02103816165189787	-0.0829045156895234	0.5289999766639297	-0.021629337537435123	-0.1127263116217384	0.5450656112623211	-0.014473707023490268	-0.11668766705881695	0.5614120424618386	0.001944638936604015	-0.10755464554487648	0.5328049723967652	0.00359188000754751	-0.07903021788810871	0.6002092552519637	0.017268634584771347	-0.0627171842669475	0.5851277427818644	0.009254678034841812	-0.06386804569652182	0.5658860513388047	0.0010618451928371408	-0.06572460688136028	0.5333456188287793	-0.013900501153281453	-0.0699827631583515	0.462283081001861	-0.023011742144276925	-0.051989820119430985
1	0.03333333333333339	0.5479746089706654	-0.021826629352584392	-0.12488087908225604	0.5254822041999752	-0.018010518514910756	-0.12213697206742763	0.49668070621963367	-0.010618689389051084	-0.11293617991335353	0.4712948236200597	-0.024832520220795518	-0.07912177502834628	0.5593440645953813	0.06238758906129738	-0.16135949089188106	0.5476458798251183	0.05241675668239121	-0.151781653205193	0.5327060782657064	0.043058828343824795	-0.13385844647270084	0.508661275076415	0.025801800698745936	-0.10323690943673175	0.508389061168556	-0.010668347824289826	-0.10941722453164154	0.5221853765131785	-0.009321211300850507	-0.12107256262622063	0.5430498595512399	0.011026162656650795	-0.12133192836808648	0.5234607285737003	0.021392364456536694	-0.08253816947842929	0.5287252151206744	-0.021468388498270263	-0.11125437416478556	0.5449004765479213	-0.01463038697808039	-0.11532900948222202	0.5614975370209851	0.0016319049189704726	-0.10637047026488422	0.533231354475524	0.003917848471345908	-0.07755175724049634	0.6006106968777581	0.01580856983409462	-0.0619063683535267	0.5853658744213206	0.008113828021237168	-0.06308379635776395	0.5659763879154567	0.00022150040025559203	-0.06468722916334335	0.5335213298176907	-0.014701449626142171	-0.06967303074185427	0.462283081001861	-0.023011742144276925	-0.051989820119430985
2	0.06666666666666676	0.5476781861035098	-0.02193389207702745	-0.12488594220058097	0.5251680216394974	-0.018085201118096084	-0.1223403433111745	0.4963774470985335	-0.010726134225140016	-0.11307929844214376	0.4710320441260203	-0.024869734371803953	-0.07920513242949911	0.5600857575051361	0.06236564561558	-0.16082341479325846	0.5483408352940664	0.05246724866318453	-0.15122765843803926	0.5332485630044501	0.043139610443941434	-0.13341675404250114	0.5090158379898743	0.025602627565781577	-0.10310396195897514	0.5086966784198704	-0.010943792384952467	-0.10941429408527414	0.522768987562175	-0.009113044184810293	-0.12066678165163397	0.543694741929613	0.011172968294144825	-0.12067398285541908	0.5234707460142115	0.02159430148225694	-0.08222227645900304	0.5285675136016854	-0.0213851544451521	-0.11004394565408598	0.5448333123120203	-0.01481373219566351	-0.11419607786944208	0.5616212537829872	0.0013158239777086855	-0.105353995658932	0.5335887148629235	0.004087135405892339	-0.07635024713114469	0.6009499849509394	0.014499887729174432	-0.06119960129814528	0.5855774119299542	0.007068801046869355	-0.06240912576443103	0.5660722199768908	-0.0005675218126849346	-0.06383953796334407	0.5336678101611226	-0.015399316595430257	-0.06939431419774644	0.4622830810018609	-0.023011742144276925	-0.051989820119430985
3	0.10000000000000014	0.547498856583355	-0.022109017689117327	-0.12483948951836632	0.5249787322224069	-0.018214848977200493	-0.12245633010058388	0.4962031249411666	-0.010836232761565645	-0.11316437399122775	0.4708623267383417	-0.024907199386563383	-0.07925653058174642	0.560791450666503	0.06227245180094998	-0.16033870232604897	0.5489952541064446	0.05243244394178015	-0.15074578868899685	0.5337766654072251	0.04312572038936002	-0.13303169013098887	0.5093639876042333	0.025406896691868686	-0.10297007767815242	0.508979449776489	-0.011208452000715075	-0.10941991812095003	0.5232611647638428	-0.009044016922678533	-0.12034456172213737	0.544252624772694	0.011172936101159436	-0.12013727658342638	0.5235530646705617	0.021659956560842075	-0.08195745816509947	0.5285025591426208	-0.021391586320851808	-0.1091067301171823	0.5448432002390254	-0.015039183085631458	-0.11330558968802446	0.5617720385508109	0.0009793633943036006	-0.10453059219038452	0.5338871136663254	0.00411864033676046	-0.07542223018794325	0.6012426024238441	0.013342839678190943	-0.06058947057996644	0.585771053136583	0.006126325761266593	-0.0618357007106739	0.5661751974861596	-0.0012938058464109226	-0.06316088268026088	0.5337882222913628	-0.015994677656753997	-0.06914850798145322	0.4622830810018608	-0.023011742144276925	-0.051989820119430985
4	0.13333333333333353	0.5474246118622306	-0.022336418597583618	-0.12475248092699409	0.5249008589855567	-0.018386634779158695	-0.12249864771705299	0.49614346559300115	-0.010946220016915698	-0.11319958575190836	0.4707770583782245	-0.024944065672611093	-0.079280627896257	0.5614580477498594	0.06212335100651589	-0.15990347123682025	0.5496074507968491	0.052328739742237396	-0.1503311704664217	0.5342841214426534	0.04303522306234275	-0.13270062996922294	0.5096996263637293	0.025218096156064962	-0.10283779881542987	0.5092377020373923	-0.011452060336778369	-0.10942102629878897	0.5236724633363232	-0.009096474659048837	-0.12010226603759089	0.5447320969799709	0.0110468239139061	-0.11971638600942636	0.523695151688381	0.021608725664370887	-0.08174216995152483	0.5285108208733323	-0.021485396787577438	-0.10843350930832435	0.5449132800197816	-0.01530857606135172	-0.11265325096690243	0.5619411615855809	0.000618860031292634	-0.10390407912633143	0.5341348385168754	0.0040344437083178475	-0.07475166894219709	0.6014987462637309	0.012333440996323275	-0.06006877374898312	0.5859516452674569	0.005288422857525177	-0.061355385592417155	0.5662849498445123	-0.0019506572626949437	-0.06263164150490375	0.5338857517537612	-0.01649115906489207	-0.06893633986537895	0.4622830810018609	-0.023011742144276925	-0.051989820119430985
5	0.1666666666666669	0.5474387598930277	-0.022601239882873658	-0.12463567817032067	0.524916425519658	-0.01858852116291454	-0.12248102208439438	0.4961799119900374	-0.011053466538001877	-0.1131936251422192	0.4707640263043832	-0.024979503865402042	-0.0792821486310199	0.5620816937711535	0.0619331743510797	-0.159515354427134	0.5501750271202599	0.05217230663283212	-0.14997822956419044	0.5347647228868257	0.04288582194665702	-0.13241993925429868	0.5100171956045592	0.025039507538073935	-0.10270958669086588	0.5094699506914244	-0.011670443743064585	-0.10941116919863347	0.5240110153900649	-0.009249599717899293	-0.11993243108282653	0.5451392475248293	0.010818428516903178	-0.11940177146812314	0.5238826330194423	0.02146247276128721	-0.08157309738492319	0.5285755243757745	-0.021655445132070072	-0.10800028008201151	0.5450288514362662	-0.015615317778071569	-0.11221986420701352	0.5621208941278578	0.0002389871356930362	-0.10346297712710933	0.5343383690674054	0.003858453184918398	-0.07431247797557095	0.6017248067548662	0.011464572248334082	-0.05963041133964364	0.5861212887138569	0.004553559149932496	-0.06096011908859389	0.5663996370785966	-0.0025350609513853373	-0.062232888052950575	0.533963454424576	-0.0168949795219141	-0.0687574757397551	0.4622830810018609	-0.023011742144276925	-0.051989820119430985
6	0.20000000000000023	0.5475215469588484	-0.02288919172869175	-0.12449975075044006	0.5250045383014118	-0.018809062548474365	-0.12241723616617689	0.4962910469254166	-0.011155559192079667	-0.11315552469505546	0.4708085269858112	-0.025012755927258823	-0.07926586143071845	0.5626582760906597	0.0617162206317623	-0.15917160526090546	0.5506953138653955	0.05197898709827742	-0.14968088253229944	0.5352125342306264	0.04269481271569597	-0.13218524096604062	0.5103117277297148	0.024874157559525045	-0.10258777182746387	0.5096745667431337	-0.011863351814317524	-0.10938929353088078	0.5242835170834941	-0.009480457451318536	-0.11982482822765939	0.5454786852389881	0.010513535911955918	-0.11918091344318066	0.524100239272921	0.021244631573985928	-0.08144560431541131	0.5286814518533653	-0.02188539332864603	-0.10777310206541268	0.5451763056890037	-0.01594788722594309	-0.11197617453936454	0.5623038158990565	-0.0001506629300416229	-0.10318549324895704	0.5345027583669344	0.0036153436301368247	-0.0740712488197377	0.6019244934089323	0.010726918328543777	-0.05926731476986191	0.5862801708966681	0.003917667858641893	-0.060641826017689415	0.5665163535384591	-0.003046701760830439	-0.061946087584525134	0.5340241673614357	-0.017214432695949355	-0.06861067223682871	0.462283081001861	-0.023011742144276925	-0.051989820119430985
